PathFileType	4	(X/Y/Z)	C:/Users/opensim2020/Desktop/walking_exp_matlab/subject03_walking04_straight_01.trc	
DataRate	CameraRate	NumFrames	NumMarkers	Units	OrigDataRate	OrigDataStartFrame	OrigNumFrames	
100.00	100.00	5	51	mm	100.00	736	265	
Frame#	Time	LFHD			RFHD			LBHD			RBHD			C7			T10			CLAV			STRN			RBAK			LSHO			LUPA			LELB			LFRM			LWRA			LWRB			LFIN			RSHO			RUPA			RELB			RFRM			RWRA			RWRB			RFIN			LASI			RASI			LPSI			RPSI			LTHI			LKNE			LTIB			LANK			LHEE			LTOE			RTHI			RKNE			RTIB			RANK			RHEE			RTOE			*39			*40			*41			*42			*43			*44			*45			*46			*47			*48			*49			*50			
		X1	Y1	Z1	X2	Y2	Z2	X3	Y3	Z3	X4	Y4	Z4	X5	Y5	Z5	X6	Y6	Z6	X7	Y7	Z7	X8	Y8	Z8	X9	Y9	Z9	X10	Y10	Z10	X11	Y11	Z11	X12	Y12	Z12	X13	Y13	Z13	X14	Y14	Z14	X15	Y15	Z15	X16	Y16	Z16	X17	Y17	Z17	X18	Y18	Z18	X19	Y19	Z19	X20	Y20	Z20	X21	Y21	Z21	X22	Y22	Z22	X23	Y23	Z23	X24	Y24	Z24	X25	Y25	Z25	X26	Y26	Z26	X27	Y27	Z27	X28	Y28	Z28	X29	Y29	Z29	X30	Y30	Z30	X31	Y31	Z31	X32	Y32	Z32	X33	Y33	Z33	X34	Y34	Z34	X35	Y35	Z35	X36	Y36	Z36	X37	Y37	Z37	X38	Y38	Z38	X39	Y39	Z39	X40	Y40	Z40	X41	Y41	Z41	X42	Y42	Z42	X43	Y43	Z43	X44	Y44	Z44	X45	Y45	Z45	X46	Y46	Z46	X47	Y47	Z47	X48	Y48	Z48	X49	Y49	Z49	X50	Y50	Z50	X51	Y51	Z51	

1	0.000	-1270.45007	-1326.30383	1595.79675	-1139.73730	-1353.27466	1595.82483	-1294.86841	-1455.10388	1554.69287	-1163.09973	-1475.70313	1553.55188	-1245.39722	-1494.74377	1395.98389	-1250.01270	-1548.58875	1087.11438	-1226.54639	-1376.49438	1313.67627	-1233.32703	-1343.35254	1143.76270	-1159.44714	-1567.44507	1221.85291	-1384.68811	-1396.58154	1353.77991	-1453.33789	-1318.22974	1172.89514	-1477.06763	-1323.21960	1053.83191	-1461.40747	-1247.24182	950.50574	-1415.60193	-1183.83716	856.48602	-1468.81921	-1196.80615	847.50952	-1445.21240	-1147.62244	781.49042	-1074.24451	-1444.13184	1337.56653	-1005.88470	-1474.75623	1116.10291	-992.33948	-1473.70422	1002.76129	-990.89313	-1471.59460	865.49371	-1024.77490	-1447.92896	767.70667	-984.38397	-1483.48792	765.45007	-994.75928	-1468.65894	692.20673	-1356.06775	-1403.04004	902.94019	-1118.22791	-1399.28015	920.02014	-1303.69470	-1575.06677	942.56763	-1158.15002	-1559.18469	955.19104	-1417.69043	-1446.92310	605.84924	-1391.11462	-1565.45203	444.62366	-1357.64868	-1678.36462	279.41412	-1303.45605	-1694.55042	139.47517	-1282.78174	-1802.13367	48.74464	-1319.09436	-1612.20178	27.53316	-1051.72668	-1394.90833	638.70392	-1088.98767	-1325.13623	477.42813	-1070.24243	-1307.66699	287.89960	-1100.98328	-1258.17773	74.28374	-1153.90039	-1293.12695	35.79544	-1115.81641	-1112.46008	51.07274																																				 
2	0.010	-1268.43225	-1319.03687	1595.11609	-1138.23987	-1346.23865	1595.25305	-1293.32166	-1448.13721	1554.22607	-1161.64734	-1468.80872	1553.10693	-1244.01245	-1487.43201	1395.63574	-1249.65100	-1541.74402	1087.05017	-1225.35803	-1369.32483	1313.13782	-1230.57654	-1334.27026	1144.19299	-1158.35144	-1561.19287	1221.67310	-1383.56897	-1389.26099	1353.62830	-1450.54663	-1311.31128	1172.15564	-1474.12756	-1316.15784	1053.03113	-1457.46863	-1240.56494	950.27393	-1409.62671	-1176.91711	856.57874	-1463.15356	-1189.32642	846.91870	-1438.90210	-1140.43054	781.18567	-1072.97498	-1437.19165	1336.66711	-1005.17950	-1468.47681	1115.20483	-991.85150	-1467.62524	1001.78888	-990.60925	-1465.91162	864.56403	-1024.67090	-1442.22510	766.82050	-984.36188	-1477.96887	764.53296	-994.75439	-1463.16736	691.29138	-1354.97534	-1396.82117	902.54987	-1117.65234	-1391.80957	919.44861	-1303.07007	-1567.04590	941.88904	-1157.32117	-1552.12476	954.66968	-1416.49377	-1440.21875	605.33203	-1389.41321	-1559.95325	444.29453	-1357.73010	-1673.64832	281.00879	-1304.77075	-1695.06592	140.02388	-1283.83118	-1800.57800	50.49675	-1319.16052	-1611.86804	27.67089	-1050.52234	-1388.26074	637.77985	-1087.85400	-1319.11450	476.39127	-1069.04578	-1301.44092	287.17789	-1099.64441	-1250.91809	73.82970	-1152.87561	-1285.17212	35.01225	-1113.81616	-1104.72754	51.58539																																				 
3	0.020	-1266.87134	-1312.02319	1594.83716	-1136.71411	-1339.19080	1594.87061	-1291.69348	-1441.07275	1553.90662	-1159.54773	-1461.54724	1552.49329	-1242.34424	-1480.12964	1395.02673	-1248.62659	-1534.47388	1086.54663	-1223.97754	-1362.09106	1312.88757	-1231.69958	-1328.94250	1143.43921	-1158.50122	-1551.76318	1220.09509	-1382.11194	-1381.68750	1353.52258	-1447.54736	-1304.29517	1171.41382	-1470.97974	-1308.99792	1052.22778	-1452.90967	-1233.24084	949.46448	-1405.17114	-1171.36816	856.11963	-1458.17078	-1182.30334	846.69641	-1432.54822	-1133.63452	780.95636	-1071.59326	-1430.12500	1336.01697	-1004.33044	-1461.91296	1114.67432	-991.25745	-1461.28479	1001.11646	-990.21826	-1459.80103	863.86591	-1024.04443	-1436.21936	766.13568	-984.16803	-1472.14832	763.84467	-994.60004	-1457.44641	690.55096	-1354.60583	-1389.51379	902.13953	-1117.10254	-1384.43982	919.19293	-1302.30750	-1558.62976	941.44940	-1156.35425	-1544.66931	954.38721	-1416.01965	-1432.42578	604.79449	-1388.43396	-1553.36572	443.94489	-1357.69202	-1669.36426	282.55338	-1305.96887	-1695.80286	140.42838	-1284.06982	-1799.86096	53.43723	-1319.11047	-1611.75574	27.66440	-1049.22131	-1381.74097	637.12927	-1086.76001	-1313.26318	475.35455	-1067.99768	-1295.77979	286.35602	-1098.44604	-1244.42578	73.13610	-1152.12427	-1277.77026	33.92175	-1112.04626	-1097.95520	51.69087																																				 
4	0.030	-1265.02124	-1304.70898	1594.69971	-1135.11084	-1332.00220	1594.71753	-1290.19604	-1433.91064	1553.81812	-1157.92029	-1454.43921	1552.39551	-1241.01648	-1472.77063	1395.13684	-1247.60083	-1526.80444	1086.52747	-1222.65613	-1354.60144	1312.62903	-1230.48083	-1321.25916	1143.39124	-1156.17847	-1546.91577	1220.85071	-1380.36584	-1373.93518	1353.48425	-1444.85547	-1297.59668	1171.16418	-1468.13904	-1302.15564	1051.91675	-1449.03491	-1226.62476	949.27112	-1399.77539	-1165.24292	855.98706	-1453.18115	-1175.59631	846.28876	-1426.36206	-1125.29138	781.18188	-1070.16162	-1422.84778	1335.63123	-1003.42987	-1454.96472	1114.16138	-990.52405	-1454.59790	1000.63458	-989.71088	-1453.42944	863.36304	-1023.62897	-1429.94434	765.64288	-983.79657	-1466.02722	763.36029	-994.25336	-1451.47693	690.09973	-1353.89233	-1381.99805	902.26080	-1116.24866	-1376.42078	919.09265	-1301.31238	-1549.92261	941.21722	-1155.15479	-1536.92346	954.31213	-1415.20166	-1424.42419	604.78857	-1387.11121	-1546.56934	444.12701	-1357.73022	-1668.09302	283.06747	-1306.80273	-1696.86389	140.81474	-1284.37366	-1798.94141	56.70254	-1318.69592	-1611.96741	27.63976	-1048.14148	-1374.98730	636.73212	-1085.72400	-1307.56360	474.29352	-1067.02124	-1290.48291	285.57013	-1097.43018	-1238.67908	72.40627	-1150.47290	-1271.83240	33.23425	-1110.55493	-1092.14099	51.29161																																				 
5	0.040	-1263.66016	-1297.61218	1594.93103	-1133.43713	-1324.80176	1594.69470	-1288.47314	-1426.54321	1553.84082	-1156.30969	-1447.08691	1552.39966	-1239.59839	-1465.45837	1395.20178	-1246.48450	-1519.18152	1086.46326	-1220.99988	-1346.95068	1312.71814	-1228.05103	-1312.66101	1143.64990	-1156.16846	-1536.53027	1219.54199	-1378.95264	-1366.38464	1353.92004	-1442.06836	-1290.82532	1170.92834	-1465.20349	-1295.24084	1051.62000	-1445.35413	-1220.20459	949.06952	-1395.66565	-1158.88770	855.86407	-1448.64246	-1168.85962	845.92267	-1421.25720	-1119.06775	781.00049	-1068.03210	-1416.54712	1336.24500	-1002.45044	-1447.71887	1113.79395	-989.70319	-1447.56677	1000.32324	-989.07831	-1446.73169	863.04480	-1023.18317	-1423.37036	765.32178	-983.33295	-1459.52637	763.05750	-993.84515	-1445.14502	689.76782	-1353.33057	-1374.26514	901.88770	-1115.37231	-1368.19507	919.16980	-1300.24744	-1540.76172	941.16711	-1153.88562	-1528.72351	954.41913	-1414.53540	-1416.20593	604.28851	-1385.94006	-1539.55664	443.81494	-1357.39929	-1662.32385	285.56601	-1308.44690	-1697.00195	141.36159	-1283.01318	-1798.76416	61.07829	-1319.09167	-1611.25610	27.77563	-1047.14246	-1368.18945	636.52191	-1084.80017	-1301.93127	473.24506	-1066.13257	-1285.42236	284.75531	-1096.48022	-1233.85254	71.44043	-1149.98059	-1267.36414	32.43487	-1109.46545	-1087.38281	50.35537																																				 
